<svg width="2373" height="799" xmlns="http://www.w3.org/2000/svg" xmlns:xlink="http://www.w3.org/1999/xlink" xml:space="preserve" overflow="hidden"><g transform="translate(-955 -719)"><rect x="958.5" y="723.5" width="687" height="265" stroke="#042433" stroke-width="6.875" stroke-miterlimit="8" fill="#156082"/><text fill="#FFFFFF" font-family="DengXian,DengXian_MSFontService,sans-serif" font-weight="400" font-size="83" transform="matrix(1 0 0 1 1068.04 883)">QUI Program</text><rect x="958.5" y="1238.5" width="687" height="250" stroke="#042433" stroke-width="6.875" stroke-miterlimit="8" fill="#156082"/><text fill="#FFFFFF" font-family="DengXian,DengXian_MSFontService,sans-serif" font-weight="400" font-size="83" transform="matrix(1 0 0 1 1176.32 1390)">Tokens</text><rect x="2026.5" y="1238.5" width="687" height="250" stroke="#042433" stroke-width="6.875" stroke-miterlimit="8" fill="#156082"/><text fill="#FFFFFF" font-family="DengXian,DengXian_MSFontService,sans-serif" font-weight="400" font-size="83" transform="matrix(1 0 0 1 2300.13 1390)">AST</text><rect x="2026.5" y="722.5" width="687" height="266" stroke="#042433" stroke-width="6.875" stroke-miterlimit="8" fill="#156082"/><text fill="#FFFFFF" font-family="DengXian,DengXian_MSFontService,sans-serif" font-weight="400" font-size="83" transform="matrix(1 0 0 1 2335.08 882)">IR</text><path d="M3.4375-3.47907e-05 3.43979 226.689-3.43521 226.69-3.4375 3.47907e-05ZM13.7522 222.106 0.00252625 249.606-13.7478 222.106Z" fill="#156082" transform="matrix(-1 0 0 1 1302.5 988.5)"/><path d="M1645.5 1360.06 2002.66 1360.06 2002.66 1366.94 1645.5 1366.94ZM1998.07 1349.75 2025.57 1363.5 1998.07 1377.25Z" fill="#156082"/><text font-family="DengXian,DengXian_MSFontService,sans-serif" font-weight="400" font-size="83" transform="matrix(1 0 0 1 1334.79 1140)">Lexing</text><text font-family="DengXian,DengXian_MSFontService,sans-serif" font-weight="400" font-size="83" transform="matrix(1 0 0 1 1702.97 1446)">Parsing</text><path d="M3.4375-4.96256e-06 3.43783 227.069-3.43717 227.069-3.4375 4.96256e-06ZM13.7503 222.485 0.000360892 249.985-13.7497 222.485Z" fill="#156082" transform="matrix(1 0 0 -1 2369.5 1238.49)"/><text font-family="DengXian,DengXian_MSFontService,sans-serif" font-weight="400" font-size="83" transform="matrix(1 0 0 1 2038.17 1139)">Compile</text><path d="M2929.5 1112.5C2929.5 1006.46 3017.92 920.5 3127 920.5 3236.08 920.5 3324.5 1006.46 3324.5 1112.5 3324.5 1218.54 3236.08 1304.5 3127 1304.5 3017.92 1304.5 2929.5 1218.54 2929.5 1112.5Z" stroke="#042433" stroke-width="6.875" stroke-miterlimit="8" fill="#156082" fill-rule="evenodd"/><text fill="#FFFFFF" font-family="DengXian,DengXian_MSFontService,sans-serif" font-weight="400" font-size="83" transform="matrix(1 0 0 1 3043.16 1140)">ASM</text><path d="M2713.5 852.063 2825.04 852.063 2825.04 1112.97 2821.61 1109.53 2906.79 1109.53 2906.79 1116.4 2818.17 1116.4 2818.17 855.5 2821.61 858.938 2713.5 858.938ZM2902.21 1099.22 2929.71 1112.97 2902.21 1126.72Z" fill="#156082"/></g></svg>